<mxfile host="app.diagrams.net" modified="2024-04-17T20:15:06.284Z" agent="Mozilla/5.0 (Windows NT 10.0; Win64; x64) AppleWebKit/537.36 (KHTML, like Gecko) Chrome/123.0.0.0 Safari/537.36" etag="99VYSbzRbIZQiUG_A8LU" version="24.2.5" type="device">
  <diagram id="R2lEEEUBdFMjLlhIrx00" name="Page-1">
    <mxGraphModel dx="829" dy="705" grid="1" gridSize="10" guides="1" tooltips="1" connect="1" arrows="1" fold="1" page="1" pageScale="1" pageWidth="850" pageHeight="1100" math="0" shadow="0" extFonts="Permanent Marker^https://fonts.googleapis.com/css?family=Permanent+Marker">
      <root>
        <mxCell id="0" />
        <mxCell id="1" parent="0" />
        <mxCell id="-Mh5fcSmZOcLi13VZrvZ-1" value="&lt;b&gt;&lt;font style=&quot;font-size: 16px;&quot;&gt;DER Requerimiento 5 - Secretaria de vivienda&lt;/font&gt;&lt;/b&gt;" style="text;html=1;align=center;verticalAlign=middle;resizable=0;points=[];autosize=1;strokeColor=none;fillColor=none;" parent="1" vertex="1">
          <mxGeometry x="180" y="100" width="370" height="30" as="geometry" />
        </mxCell>
        <mxCell id="-Mh5fcSmZOcLi13VZrvZ-5" value="habitante" style="whiteSpace=wrap;html=1;align=center;fillColor=#1ba1e2;fontColor=#ffffff;strokeColor=#006EAF;" parent="1" vertex="1">
          <mxGeometry x="160" y="230" width="90" height="40" as="geometry" />
        </mxCell>
        <mxCell id="-Mh5fcSmZOcLi13VZrvZ-6" value="dni" style="ellipse;whiteSpace=wrap;html=1;align=center;fontStyle=4;fillColor=#dae8fc;strokeColor=#6c8ebf;" parent="1" vertex="1">
          <mxGeometry x="40" y="160" width="60" height="30" as="geometry" />
        </mxCell>
        <mxCell id="-Mh5fcSmZOcLi13VZrvZ-9" value="vivienda" style="whiteSpace=wrap;html=1;align=center;fillColor=#1ba1e2;fontColor=#ffffff;strokeColor=#006EAF;" parent="1" vertex="1">
          <mxGeometry x="450" y="230" width="90" height="40" as="geometry" />
        </mxCell>
        <mxCell id="-Mh5fcSmZOcLi13VZrvZ-10" value="nombre" style="ellipse;whiteSpace=wrap;html=1;align=center;" parent="1" vertex="1">
          <mxGeometry x="30" y="210" width="70" height="30" as="geometry" />
        </mxCell>
        <mxCell id="-Mh5fcSmZOcLi13VZrvZ-11" value="id_instructor" style="ellipse;whiteSpace=wrap;html=1;align=center;fontStyle=4;fillColor=#dae8fc;strokeColor=#6c8ebf;" parent="1" vertex="1">
          <mxGeometry x="360" y="160" width="100" height="32.5" as="geometry" />
        </mxCell>
        <mxCell id="-Mh5fcSmZOcLi13VZrvZ-12" value="mts_terreno" style="ellipse;whiteSpace=wrap;html=1;align=center;" parent="1" vertex="1">
          <mxGeometry x="610" y="160" width="100" height="30" as="geometry" />
        </mxCell>
        <mxCell id="-Mh5fcSmZOcLi13VZrvZ-14" value="es propietario" style="shape=rhombus;perimeter=rhombusPerimeter;whiteSpace=wrap;html=1;align=center;fillColor=#008a00;fontColor=#ffffff;strokeColor=#005700;" parent="1" vertex="1">
          <mxGeometry x="300" y="308.75" width="100" height="55" as="geometry" />
        </mxCell>
        <mxCell id="-Mh5fcSmZOcLi13VZrvZ-15" value="" style="endArrow=none;html=1;rounded=0;exitX=1;exitY=1;exitDx=0;exitDy=0;entryX=0;entryY=0.5;entryDx=0;entryDy=0;" parent="1" source="-Mh5fcSmZOcLi13VZrvZ-5" target="-Mh5fcSmZOcLi13VZrvZ-14" edge="1">
          <mxGeometry relative="1" as="geometry">
            <mxPoint x="430" y="520" as="sourcePoint" />
            <mxPoint x="590" y="520" as="targetPoint" />
          </mxGeometry>
        </mxCell>
        <mxCell id="-Mh5fcSmZOcLi13VZrvZ-16" value="" style="endArrow=none;html=1;rounded=0;exitX=1;exitY=0.5;exitDx=0;exitDy=0;entryX=0;entryY=0.5;entryDx=0;entryDy=0;" parent="1" source="-Mh5fcSmZOcLi13VZrvZ-14" target="-Mh5fcSmZOcLi13VZrvZ-9" edge="1">
          <mxGeometry relative="1" as="geometry">
            <mxPoint x="440" y="530" as="sourcePoint" />
            <mxPoint x="600" y="530" as="targetPoint" />
          </mxGeometry>
        </mxCell>
        <mxCell id="-Mh5fcSmZOcLi13VZrvZ-17" value="1" style="text;html=1;align=center;verticalAlign=middle;resizable=0;points=[];autosize=1;strokeColor=none;fillColor=none;" parent="1" vertex="1">
          <mxGeometry x="420" y="217.5" width="30" height="30" as="geometry" />
        </mxCell>
        <mxCell id="-Mh5fcSmZOcLi13VZrvZ-18" value="1" style="text;html=1;align=center;verticalAlign=middle;resizable=0;points=[];autosize=1;strokeColor=none;fillColor=none;" parent="1" vertex="1">
          <mxGeometry x="250" y="217.5" width="30" height="30" as="geometry" />
        </mxCell>
        <mxCell id="-Mh5fcSmZOcLi13VZrvZ-23" value="" style="endArrow=none;html=1;rounded=0;exitX=1;exitY=1;exitDx=0;exitDy=0;entryX=0;entryY=0;entryDx=0;entryDy=0;" parent="1" source="-Mh5fcSmZOcLi13VZrvZ-6" target="-Mh5fcSmZOcLi13VZrvZ-5" edge="1">
          <mxGeometry relative="1" as="geometry">
            <mxPoint x="430" y="520" as="sourcePoint" />
            <mxPoint x="590" y="520" as="targetPoint" />
          </mxGeometry>
        </mxCell>
        <mxCell id="-Mh5fcSmZOcLi13VZrvZ-24" value="" style="endArrow=none;html=1;rounded=0;exitX=0.5;exitY=0;exitDx=0;exitDy=0;" parent="1" source="-Mh5fcSmZOcLi13VZrvZ-5" target="-Mh5fcSmZOcLi13VZrvZ-37" edge="1">
          <mxGeometry relative="1" as="geometry">
            <mxPoint x="440" y="530" as="sourcePoint" />
            <mxPoint x="205" y="190" as="targetPoint" />
          </mxGeometry>
        </mxCell>
        <mxCell id="-Mh5fcSmZOcLi13VZrvZ-25" value="" style="endArrow=none;html=1;rounded=0;exitX=0.75;exitY=0;exitDx=0;exitDy=0;entryX=0.5;entryY=1;entryDx=0;entryDy=0;" parent="1" source="-Mh5fcSmZOcLi13VZrvZ-5" target="-Mh5fcSmZOcLi13VZrvZ-42" edge="1">
          <mxGeometry relative="1" as="geometry">
            <mxPoint x="450" y="540" as="sourcePoint" />
            <mxPoint x="220" y="200" as="targetPoint" />
          </mxGeometry>
        </mxCell>
        <mxCell id="-Mh5fcSmZOcLi13VZrvZ-26" value="" style="endArrow=none;html=1;rounded=0;exitX=0;exitY=0.5;exitDx=0;exitDy=0;entryX=1;entryY=0.5;entryDx=0;entryDy=0;" parent="1" source="-Mh5fcSmZOcLi13VZrvZ-5" target="-Mh5fcSmZOcLi13VZrvZ-10" edge="1">
          <mxGeometry relative="1" as="geometry">
            <mxPoint x="460" y="550" as="sourcePoint" />
            <mxPoint x="620" y="550" as="targetPoint" />
          </mxGeometry>
        </mxCell>
        <mxCell id="-Mh5fcSmZOcLi13VZrvZ-27" value="" style="endArrow=none;html=1;rounded=0;exitX=0.5;exitY=0;exitDx=0;exitDy=0;entryX=0.5;entryY=1;entryDx=0;entryDy=0;" parent="1" source="-Mh5fcSmZOcLi13VZrvZ-9" target="-Mh5fcSmZOcLi13VZrvZ-11" edge="1">
          <mxGeometry relative="1" as="geometry">
            <mxPoint x="470" y="560" as="sourcePoint" />
            <mxPoint x="630" y="560" as="targetPoint" />
          </mxGeometry>
        </mxCell>
        <mxCell id="-Mh5fcSmZOcLi13VZrvZ-28" value="" style="endArrow=none;html=1;rounded=0;exitX=1;exitY=0;exitDx=0;exitDy=0;entryX=0;entryY=1;entryDx=0;entryDy=0;" parent="1" source="-Mh5fcSmZOcLi13VZrvZ-9" target="-Mh5fcSmZOcLi13VZrvZ-12" edge="1">
          <mxGeometry relative="1" as="geometry">
            <mxPoint x="480" y="570" as="sourcePoint" />
            <mxPoint x="640" y="570" as="targetPoint" />
          </mxGeometry>
        </mxCell>
        <mxCell id="-Mh5fcSmZOcLi13VZrvZ-29" value="" style="endArrow=none;html=1;rounded=0;exitX=1;exitY=0.5;exitDx=0;exitDy=0;entryX=0;entryY=0.5;entryDx=0;entryDy=0;" parent="1" source="-Mh5fcSmZOcLi13VZrvZ-9" target="-Mh5fcSmZOcLi13VZrvZ-43" edge="1">
          <mxGeometry relative="1" as="geometry">
            <mxPoint x="490" y="580" as="sourcePoint" />
            <mxPoint x="600" y="290" as="targetPoint" />
          </mxGeometry>
        </mxCell>
        <mxCell id="-Mh5fcSmZOcLi13VZrvZ-37" value="tipo_doc" style="ellipse;whiteSpace=wrap;html=1;align=center;fontStyle=4;fillColor=#dae8fc;strokeColor=#6c8ebf;" parent="1" vertex="1">
          <mxGeometry x="120" y="155" width="75" height="30" as="geometry" />
        </mxCell>
        <mxCell id="-Mh5fcSmZOcLi13VZrvZ-38" value="apellido" style="ellipse;whiteSpace=wrap;html=1;align=center;" parent="1" vertex="1">
          <mxGeometry x="30" y="247.5" width="70" height="30" as="geometry" />
        </mxCell>
        <mxCell id="-Mh5fcSmZOcLi13VZrvZ-39" value="fecha_nac" style="ellipse;whiteSpace=wrap;html=1;align=center;" parent="1" vertex="1">
          <mxGeometry x="45" y="290" width="70" height="30" as="geometry" />
        </mxCell>
        <mxCell id="-Mh5fcSmZOcLi13VZrvZ-40" value="" style="endArrow=none;html=1;rounded=0;entryX=1;entryY=0.5;entryDx=0;entryDy=0;exitX=0;exitY=0.75;exitDx=0;exitDy=0;" parent="1" source="-Mh5fcSmZOcLi13VZrvZ-5" target="-Mh5fcSmZOcLi13VZrvZ-38" edge="1">
          <mxGeometry relative="1" as="geometry">
            <mxPoint x="140" y="280" as="sourcePoint" />
            <mxPoint x="110" y="235" as="targetPoint" />
          </mxGeometry>
        </mxCell>
        <mxCell id="-Mh5fcSmZOcLi13VZrvZ-41" value="" style="endArrow=none;html=1;rounded=0;exitX=0;exitY=1;exitDx=0;exitDy=0;entryX=1;entryY=0.5;entryDx=0;entryDy=0;" parent="1" source="-Mh5fcSmZOcLi13VZrvZ-5" target="-Mh5fcSmZOcLi13VZrvZ-39" edge="1">
          <mxGeometry relative="1" as="geometry">
            <mxPoint x="180" y="270" as="sourcePoint" />
            <mxPoint x="120" y="245" as="targetPoint" />
          </mxGeometry>
        </mxCell>
        <mxCell id="-Mh5fcSmZOcLi13VZrvZ-42" value="edad" style="ellipse;whiteSpace=wrap;html=1;align=center;dashed=1;" parent="1" vertex="1">
          <mxGeometry x="220" y="160" width="55" height="30" as="geometry" />
        </mxCell>
        <mxCell id="-Mh5fcSmZOcLi13VZrvZ-43" value="direccion" style="ellipse;whiteSpace=wrap;html=1;align=center;" parent="1" vertex="1">
          <mxGeometry x="585" y="232.5" width="70" height="35" as="geometry" />
        </mxCell>
        <mxCell id="-Mh5fcSmZOcLi13VZrvZ-44" value="numero" style="ellipse;whiteSpace=wrap;html=1;align=center;" parent="1" vertex="1">
          <mxGeometry x="670" y="232.5" width="60" height="25" as="geometry" />
        </mxCell>
        <mxCell id="-Mh5fcSmZOcLi13VZrvZ-45" value="calle" style="ellipse;whiteSpace=wrap;html=1;align=center;direction=south;" parent="1" vertex="1">
          <mxGeometry x="670" y="192.5" width="40" height="30" as="geometry" />
        </mxCell>
        <mxCell id="-Mh5fcSmZOcLi13VZrvZ-46" value="" style="endArrow=none;html=1;rounded=0;entryX=1;entryY=0;entryDx=0;entryDy=0;" parent="1" source="-Mh5fcSmZOcLi13VZrvZ-45" target="-Mh5fcSmZOcLi13VZrvZ-43" edge="1">
          <mxGeometry relative="1" as="geometry">
            <mxPoint x="560" y="405" as="sourcePoint" />
            <mxPoint x="620" y="445" as="targetPoint" />
          </mxGeometry>
        </mxCell>
        <mxCell id="-Mh5fcSmZOcLi13VZrvZ-47" value="" style="endArrow=none;html=1;rounded=0;exitX=0;exitY=0.5;exitDx=0;exitDy=0;entryX=1;entryY=0.5;entryDx=0;entryDy=0;" parent="1" source="-Mh5fcSmZOcLi13VZrvZ-44" target="-Mh5fcSmZOcLi13VZrvZ-43" edge="1">
          <mxGeometry relative="1" as="geometry">
            <mxPoint x="570" y="415" as="sourcePoint" />
            <mxPoint x="630" y="455" as="targetPoint" />
          </mxGeometry>
        </mxCell>
        <mxCell id="-Mh5fcSmZOcLi13VZrvZ-48" value="localidad" style="ellipse;whiteSpace=wrap;html=1;align=center;" parent="1" vertex="1">
          <mxGeometry x="670" y="267.5" width="60" height="27.5" as="geometry" />
        </mxCell>
        <mxCell id="-Mh5fcSmZOcLi13VZrvZ-49" value="" style="endArrow=none;html=1;rounded=0;exitX=0;exitY=0.5;exitDx=0;exitDy=0;entryX=1;entryY=1;entryDx=0;entryDy=0;" parent="1" source="-Mh5fcSmZOcLi13VZrvZ-48" target="-Mh5fcSmZOcLi13VZrvZ-43" edge="1">
          <mxGeometry relative="1" as="geometry">
            <mxPoint x="560" y="405" as="sourcePoint" />
            <mxPoint x="660" y="300" as="targetPoint" />
          </mxGeometry>
        </mxCell>
        <mxCell id="-Mh5fcSmZOcLi13VZrvZ-50" value="cp" style="ellipse;whiteSpace=wrap;html=1;align=center;" parent="1" vertex="1">
          <mxGeometry x="655" y="300" width="40" height="20" as="geometry" />
        </mxCell>
        <mxCell id="-Mh5fcSmZOcLi13VZrvZ-53" value="" style="endArrow=none;html=1;rounded=0;exitX=0;exitY=0;exitDx=0;exitDy=0;entryX=0.5;entryY=1;entryDx=0;entryDy=0;" parent="1" source="-Mh5fcSmZOcLi13VZrvZ-50" target="-Mh5fcSmZOcLi13VZrvZ-43" edge="1">
          <mxGeometry relative="1" as="geometry">
            <mxPoint x="550" y="260" as="sourcePoint" />
            <mxPoint x="595" y="260" as="targetPoint" />
          </mxGeometry>
        </mxCell>
        <mxCell id="-Mh5fcSmZOcLi13VZrvZ-54" value="mts_edificado" style="ellipse;whiteSpace=wrap;html=1;align=center;" parent="1" vertex="1">
          <mxGeometry x="485" y="161.25" width="100" height="30" as="geometry" />
        </mxCell>
        <mxCell id="-Mh5fcSmZOcLi13VZrvZ-55" value="" style="endArrow=none;html=1;rounded=0;exitX=0.75;exitY=0;exitDx=0;exitDy=0;entryX=0.5;entryY=1;entryDx=0;entryDy=0;" parent="1" source="-Mh5fcSmZOcLi13VZrvZ-9" target="-Mh5fcSmZOcLi13VZrvZ-54" edge="1">
          <mxGeometry relative="1" as="geometry">
            <mxPoint x="550" y="260" as="sourcePoint" />
            <mxPoint x="595" y="260" as="targetPoint" />
          </mxGeometry>
        </mxCell>
        <mxCell id="-Mh5fcSmZOcLi13VZrvZ-57" value="" style="endArrow=none;html=1;rounded=0;exitX=0.5;exitY=1;exitDx=0;exitDy=0;entryX=0.5;entryY=0;entryDx=0;entryDy=0;" parent="1" source="-Mh5fcSmZOcLi13VZrvZ-9" target="gEzw4BVtjBFKch-U_v-I-8" edge="1">
          <mxGeometry relative="1" as="geometry">
            <mxPoint x="550" y="260" as="sourcePoint" />
            <mxPoint x="534.46" y="291.5300000000001" as="targetPoint" />
          </mxGeometry>
        </mxCell>
        <mxCell id="-Mh5fcSmZOcLi13VZrvZ-59" value="intendente" style="ellipse;whiteSpace=wrap;html=1;align=center;" parent="1" vertex="1">
          <mxGeometry x="590" y="390" width="70" height="30" as="geometry" />
        </mxCell>
        <mxCell id="-Mh5fcSmZOcLi13VZrvZ-60" value="" style="endArrow=none;html=1;rounded=0;exitX=1;exitY=0;exitDx=0;exitDy=0;entryX=0;entryY=1;entryDx=0;entryDy=0;" parent="1" source="gEzw4BVtjBFKch-U_v-I-7" target="gEzw4BVtjBFKch-U_v-I-9" edge="1">
          <mxGeometry relative="1" as="geometry">
            <mxPoint x="505" y="280" as="sourcePoint" />
            <mxPoint x="570.2512626584789" y="358.1066017177948" as="targetPoint" />
          </mxGeometry>
        </mxCell>
        <mxCell id="-Mh5fcSmZOcLi13VZrvZ-61" value="" style="endArrow=none;html=1;rounded=0;exitX=0;exitY=0.5;exitDx=0;exitDy=0;entryX=1;entryY=0.5;entryDx=0;entryDy=0;" parent="1" source="-Mh5fcSmZOcLi13VZrvZ-59" target="gEzw4BVtjBFKch-U_v-I-7" edge="1">
          <mxGeometry relative="1" as="geometry">
            <mxPoint x="515" y="290" as="sourcePoint" />
            <mxPoint x="590" y="450" as="targetPoint" />
          </mxGeometry>
        </mxCell>
        <mxCell id="gEzw4BVtjBFKch-U_v-I-1" value="vive" style="shape=rhombus;perimeter=rhombusPerimeter;whiteSpace=wrap;html=1;align=center;fillColor=#008a00;fontColor=#ffffff;strokeColor=#005700;" vertex="1" parent="1">
          <mxGeometry x="300" y="222.5" width="100" height="55" as="geometry" />
        </mxCell>
        <mxCell id="gEzw4BVtjBFKch-U_v-I-2" value="" style="endArrow=none;html=1;rounded=0;entryX=0;entryY=0.5;entryDx=0;entryDy=0;exitX=1;exitY=0.5;exitDx=0;exitDy=0;" edge="1" parent="1" source="-Mh5fcSmZOcLi13VZrvZ-5" target="gEzw4BVtjBFKch-U_v-I-1">
          <mxGeometry relative="1" as="geometry">
            <mxPoint x="280" y="290" as="sourcePoint" />
            <mxPoint x="450" y="540" as="targetPoint" />
          </mxGeometry>
        </mxCell>
        <mxCell id="gEzw4BVtjBFKch-U_v-I-3" value="" style="endArrow=none;html=1;rounded=0;exitX=1;exitY=0.5;exitDx=0;exitDy=0;entryX=0;entryY=0.5;entryDx=0;entryDy=0;" edge="1" parent="1" source="gEzw4BVtjBFKch-U_v-I-1" target="-Mh5fcSmZOcLi13VZrvZ-9">
          <mxGeometry relative="1" as="geometry">
            <mxPoint x="260" y="260" as="sourcePoint" />
            <mxPoint x="420" y="280" as="targetPoint" />
          </mxGeometry>
        </mxCell>
        <mxCell id="gEzw4BVtjBFKch-U_v-I-4" value="n" style="text;html=1;align=center;verticalAlign=middle;resizable=0;points=[];autosize=1;strokeColor=none;fillColor=none;" vertex="1" parent="1">
          <mxGeometry x="232.5" y="277.5" width="30" height="30" as="geometry" />
        </mxCell>
        <mxCell id="gEzw4BVtjBFKch-U_v-I-5" value="n" style="text;html=1;align=center;verticalAlign=middle;resizable=0;points=[];autosize=1;strokeColor=none;fillColor=none;" vertex="1" parent="1">
          <mxGeometry x="425" y="278" width="30" height="30" as="geometry" />
        </mxCell>
        <mxCell id="gEzw4BVtjBFKch-U_v-I-7" value="municipio" style="whiteSpace=wrap;html=1;align=center;fillColor=#1ba1e2;fontColor=#ffffff;strokeColor=#006EAF;" vertex="1" parent="1">
          <mxGeometry x="450" y="390" width="90" height="40" as="geometry" />
        </mxCell>
        <mxCell id="gEzw4BVtjBFKch-U_v-I-8" value="pertenece" style="shape=rhombus;perimeter=rhombusPerimeter;whiteSpace=wrap;html=1;align=center;fillColor=#008a00;fontColor=#ffffff;strokeColor=#005700;" vertex="1" parent="1">
          <mxGeometry x="445" y="305" width="100" height="55" as="geometry" />
        </mxCell>
        <mxCell id="gEzw4BVtjBFKch-U_v-I-9" value="nombre" style="ellipse;whiteSpace=wrap;html=1;align=center;fontStyle=4;fillColor=#dae8fc;strokeColor=#6c8ebf;" vertex="1" parent="1">
          <mxGeometry x="555" y="331.25" width="100" height="32.5" as="geometry" />
        </mxCell>
        <mxCell id="gEzw4BVtjBFKch-U_v-I-11" value="" style="endArrow=none;html=1;rounded=0;exitX=0.5;exitY=0;exitDx=0;exitDy=0;entryX=0.5;entryY=1;entryDx=0;entryDy=0;" edge="1" parent="1" source="gEzw4BVtjBFKch-U_v-I-7" target="gEzw4BVtjBFKch-U_v-I-8">
          <mxGeometry relative="1" as="geometry">
            <mxPoint x="550" y="400" as="sourcePoint" />
            <mxPoint x="579" y="369" as="targetPoint" />
          </mxGeometry>
        </mxCell>
        <mxCell id="gEzw4BVtjBFKch-U_v-I-12" value="1" style="text;html=1;align=center;verticalAlign=middle;resizable=0;points=[];autosize=1;strokeColor=none;fillColor=none;" vertex="1" parent="1">
          <mxGeometry x="495" y="360" width="30" height="30" as="geometry" />
        </mxCell>
        <mxCell id="gEzw4BVtjBFKch-U_v-I-13" value="n" style="text;html=1;align=center;verticalAlign=middle;resizable=0;points=[];autosize=1;strokeColor=none;fillColor=none;" vertex="1" parent="1">
          <mxGeometry x="495" y="268" width="30" height="30" as="geometry" />
        </mxCell>
      </root>
    </mxGraphModel>
  </diagram>
</mxfile>
